<?xml version="1.0" encoding="utf-8"?>
<!-- Generator: Adobe Illustrator 21.0.0, SVG Export Plug-In . SVG Version: 6.00 Build 0)  -->
<svg version="1.1" id="Layer_1" xmlns="http://www.w3.org/2000/svg" xmlns:xlink="http://www.w3.org/1999/xlink" x="0px" y="0px"
	 viewBox="0 0 300 300" style="enable-background:new 0 0 300 300;" xml:space="preserve">
<style type="text/css">
	.st0{fill:none;}
	.st1{opacity:0.05;}
	.st2{fill:#FFFFFF;}
	.st3{fill:url(#New_Pattern);}
</style>
<pattern  x="-106" y="-106" width="300" height="300" patternUnits="userSpaceOnUse" id="New_Pattern" viewBox="0 -349.8 300 300" style="overflow:visible;">
	<g>
		<rect y="-349.8" class="st0" width="300" height="300"/>
		<g class="st1">
			<g id="PROP_TEXT_6_">
				<path class="st2" d="M93.5-15.3c1-2.9,1.3-5.9,0.8-8.8c-0.5-2.9-1.5-5.8-3.2-8.6c-1.7-2.8-3.8-5.5-6.4-8.1l-13-13L31-13.2l13,13
					l9.7-9.7c2.6,2.6,5.3,4.7,8.1,6.4c2.8,1.7,5.7,2.8,8.6,3.2C73.3,0.2,76.2,0,79.2-1c2.9-1,5.8-2.9,8.6-5.7
					C90.6-9.5,92.5-12.4,93.5-15.3z M73.7-29.9l0.5,0.5c1.7,1.7,2.5,3.3,2.5,4.9c0,1.5-0.8,3-2.2,4.4c-1.4,1.4-2.9,2.2-4.4,2.2
					c-1.5,0-3.2-0.8-4.9-2.5l-0.5-0.5L73.7-29.9z"/>
			</g>
		</g>
		<g class="st1">
			<g id="PROP_TEXT_4_">
				<path class="st2" d="M93.5-315.3c1-2.9,1.3-5.9,0.8-8.8c-0.5-2.9-1.5-5.8-3.2-8.6c-1.7-2.8-3.8-5.5-6.4-8.1l-13-13L31-313.2
					l13,13l9.7-9.7c2.6,2.6,5.3,4.7,8.1,6.4c2.8,1.7,5.7,2.8,8.6,3.2c2.9,0.5,5.8,0.2,8.8-0.8c2.9-1,5.8-2.9,8.6-5.7
					C90.6-309.5,92.5-312.4,93.5-315.3z M73.7-329.9l0.5,0.5c1.7,1.7,2.5,3.3,2.5,4.9c0,1.5-0.8,3-2.2,4.4c-1.4,1.4-2.9,2.2-4.4,2.2
					c-1.5,0-3.2-0.8-4.9-2.5l-0.5-0.5L73.7-329.9z"/>
				<path class="st2" d="M65.7-278.5l13,13l10.3-10.3l-4.2,16.4l15.2,15.2l5.8-21c1.7,0.3,3.6,0.3,5.4,0.1c1.6-0.2,3.4-0.8,5.4-1.6
					c2-0.9,4-2.3,6-4.3c2.6-2.6,4.4-5.3,5.4-8.2c1.1-2.9,1.4-5.8,1.2-8.8c-0.3-3-1.2-5.9-2.7-8.8c-1.5-2.9-3.6-5.7-6.2-8.3l-14-14
					L65.7-278.5z M108.3-295.2l0.7,0.7c1.5,1.5,2.5,3.2,2.9,5c0.4,1.8-0.2,3.5-1.9,5.1c-1.6,1.6-3.3,2.2-5.1,1.9
					c-1.8-0.4-3.4-1.4-5-2.9l-0.7-0.7L108.3-295.2z"/>
				<path class="st2" d="M113.7-254.5c-1.5,3.7-2.2,7.5-2.2,11.4c0,3.9,0.7,7.6,2.2,11.4c1.5,3.7,3.7,7,6.6,10
					c2.9,2.9,6.2,5.1,10,6.6c3.7,1.5,7.5,2.2,11.4,2.2c3.9,0,7.6-0.7,11.4-2.2c3.7-1.5,7-3.7,10-6.6c2.9-2.9,5.1-6.2,6.6-10
					c1.5-3.7,2.2-7.5,2.2-11.4c0-3.9-0.7-7.6-2.2-11.4c-1.5-3.7-3.7-7-6.6-10c-2.9-2.9-6.2-5.1-10-6.6c-3.7-1.5-7.5-2.2-11.4-2.2
					c-3.9,0-7.7,0.7-11.4,2.2c-3.7,1.5-7,3.7-10,6.6S115.1-258.2,113.7-254.5z M137.1-254.3c1.5-0.6,3-0.9,4.5-0.9
					c1.5,0,3.1,0.3,4.5,0.9c1.5,0.6,2.8,1.5,4,2.7c1.2,1.2,2.1,2.5,2.7,4c0.6,1.5,0.9,3,0.9,4.5c0,1.5-0.3,3.1-0.9,4.5
					c-0.6,1.5-1.5,2.8-2.7,4c-1.2,1.2-2.5,2.1-4,2.7c-1.5,0.6-3,0.9-4.5,0.9c-1.5,0-3.1-0.3-4.5-0.9c-1.5-0.6-2.8-1.5-4-2.7
					c-1.2-1.2-2.1-2.5-2.7-4c-0.6-1.5-0.9-3-0.9-4.5c0-1.5,0.3-3.1,0.9-4.5c0.6-1.5,1.5-2.8,2.7-4
					C134.3-252.9,135.6-253.7,137.1-254.3z"/>
				<path class="st2" d="M208.5-200.3c1-2.9,1.3-5.9,0.8-8.8c-0.5-2.9-1.5-5.8-3.2-8.6c-1.7-2.8-3.8-5.5-6.4-8.1l-13-13L146-198.2
					l13,13l9.7-9.7c2.6,2.6,5.3,4.7,8.1,6.4c2.8,1.7,5.7,2.8,8.6,3.2c2.9,0.5,5.8,0.2,8.8-0.8c2.9-1,5.8-2.9,8.6-5.7
					C205.6-194.5,207.5-197.4,208.5-200.3z M188.7-214.9l0.5,0.5c1.7,1.7,2.5,3.3,2.5,4.9c0,1.5-0.8,3-2.2,4.4
					c-1.4,1.4-2.9,2.2-4.4,2.2c-1.5,0-3.2-0.8-4.9-2.5l-0.5-0.5L188.7-214.9z"/>
			</g>
			<g id="NUTS_TEXT_4_">
				<path class="st2" d="M4.8-252.2l12.7,12.7l15.6-15.6l-4.4,26.8l10.7,10.7l40.7-40.7L67.3-271l-15.7,15.7l4.4-26.9l-10.7-10.7
					L4.8-252.2z"/>
				<path class="st2" d="M67.2-189.7c2.7,1.4,5.5,2.2,8.3,2.4c2.8,0.2,5.6-0.3,8.3-1.5c2.8-1.2,5.5-3.1,8.2-5.8l25.8-25.8l-13-13
					l-25.3,25.3c-1.4,1.4-2.8,2.2-4.1,2.4c-1.3,0.2-2.7-0.4-4.1-1.8c-1.4-1.4-2-2.7-1.8-4.1c0.2-1.3,1-2.7,2.4-4.1l25.3-25.3l-13-13
					l-25.8,25.8c-2.7,2.7-4.6,5.4-5.8,8.2c-1.2,2.8-1.7,5.6-1.6,8.3c0.2,2.8,1,5.5,2.4,8.2c1.4,2.7,3.4,5.4,6,7.9
					C61.8-193.1,64.5-191.1,67.2-189.7z"/>
				<path class="st2" d="M86.6-170.4L100-157l30-30l7.5,7.5l10.7-10.7l-28.4-28.4l-10.7,10.7l7.5,7.5L86.6-170.4z"/>
				<path class="st2" d="M109.6-148.3c0.7,1.3,1.5,2.6,2.5,4c0.8,1.2,1.8,2.6,3,4c1.2,1.5,2.5,3,4.1,4.5c2.6,2.6,5.1,4.4,7.6,5.6
					c2.5,1.2,5,1.8,7.3,1.9c2.4,0,4.6-0.4,6.7-1.4c2.1-1,4.1-2.4,5.9-4.2c1.7-1.7,3-3.5,3.8-5.5c0.8-1.9,1.4-3.8,1.7-5.7
					c0.3-1.9,0.4-3.7,0.3-5.5c-0.1-1.8-0.2-3.4-0.4-4.9c-0.1-1.4-0.2-2.7-0.3-3.7c-0.1-1,0.1-1.7,0.4-2c0.4-0.4,0.8-0.5,1.2-0.5
					c0.4,0,0.9,0.2,1.3,0.4c0.4,0.2,0.8,0.5,1.2,0.9c0.4,0.3,0.7,0.6,0.9,0.9c0.4,0.4,0.9,0.9,1.2,1.3c0.4,0.4,0.7,0.9,1,1.2
					c0.4,0.4,0.7,0.9,1,1.2l11.4-11.4c-0.7-1-1.5-2-2.3-3c-0.7-0.9-1.5-1.8-2.3-2.9c-0.9-1.1-1.8-2.1-2.8-3.1
					c-1.9-1.9-3.9-3.4-6-4.5c-2.2-1.1-4.3-1.8-6.5-2.1c-2.2-0.2-4.4,0-6.5,0.8c-2.2,0.8-4.2,2.1-6.1,4c-1.7,1.7-2.9,3.5-3.7,5.4
					c-0.8,1.9-1.2,3.8-1.4,5.7c-0.2,1.9-0.2,3.8,0,5.6c0.2,1.8,0.4,3.5,0.6,5c0.2,1.5,0.3,2.9,0.3,4c0,1.1-0.2,1.9-0.8,2.5
					c-1.4,1.4-3,1.1-4.9-0.7c-1.1-1.1-2-2.2-3-3.3c-0.9-1.2-1.7-2.2-2.3-3.3c-0.8-1.1-1.5-2.3-2.1-3.5L109.6-148.3z"/>
			</g>
			<g id="NUT_ITEM_5_">
				<path class="st2" d="M262.6-92.2c-1.6,6-7.9,12.3-13.9,13.9l-17.5,4.7c-6,1.6-14.6-0.7-19-5.1l-12.8-12.8
					c-4.4-4.4-6.7-12.9-5.1-19l4.7-17.5c1.6-6,7.9-12.3,13.9-13.9l17.5-4.7c6-1.6,14.6,0.7,19,5.1l12.8,12.8
					c4.4,4.4,6.7,12.9,5.1,19L262.6-92.2z M243.8-97.1c7.2-7.2,7.2-18.8,0-25.9c-7.2-7.2-18.8-7.2-25.9,0c-7.2,7.2-7.2,18.8,0,25.9
					S236.7-89.9,243.8-97.1z"/>
			</g>
			<g id="PROP_LEFT_4_">
				<path class="st2" d="M219.3-124.6c1.2-1.8,0.7-2.4-1.2-1.2c0,0,0,0-1.5,1.5c-1.5,1.5-1.5,1.5-1.5,1.5c-1.2,1.9-0.6,2.4,1.2,1.2
					c0,0,0,0,1.4-1.4C219.3-124.6,219.3-124.6,219.3-124.6z"/>
				<path class="st2" d="M195.8-129.1c1.9-6.9,9.1-14.1,16-16c6.9-1.9,10.4-9.4,7.8-16.7c0,0-0.6-1.6-6.8-7.8
					c-3.6-3.6-3.6-3.6-3.6-3.6c-4.5-2.7-12.6-0.3-18.2,5.2l-18.1,18.1c-5.5,5.5-7.8,13.7-5.2,18.2c0,0,0,0,3.6,3.6
					c6.2,6.2,7.8,6.8,7.8,6.8C186.4-118.7,193.9-122.2,195.8-129.1z"/>
			</g>
			<g id="PROP_BOTTOM_6_">
				<path class="st2" d="M218-94.4c1.8,1.1,2.3,0.6,1.1-1.1c0,0,0,0-1.4-1.4c-1.4-1.4-1.4-1.4-1.4-1.4c-1.7-1.2-2.2-0.7-1.1,1.1
					c0,0,0,0,1.4,1.4S218-94.4,218-94.4z"/>
				<path class="st2" d="M221.3-67.3c-1.1,0.3-6.6-4-12.1-9.5l-11.7-11.7c-5.5-5.5-9.8-10.9-9.5-12.1c0.3-1.1-5,0.4-11.7,3.5
					c0,0,0,0-5.2,5.2c-3.6,3.6-3.6,3.6-3.6,3.6c-2.7,4.5-0.3,12.6,5.2,18.2L191-52c5.5,5.5,13.7,7.8,18.2,5.2c0,0,0,0,3.6-3.6
					c5.2-5.2,5.2-5.2,5.2-5.2C220.9-62.3,222.5-67.6,221.3-67.3z"/>
			</g>
			<g id="PROP_RIGHT_6_">
				<path class="st2" d="M246.6-97.2c1.1-1.8,0.6-2.3-1.1-1.1c0,0,0,0-1.4,1.4c-1.4,1.4-1.4,1.4-1.4,1.4c-1.2,1.8-0.7,2.3,1.1,1.1
					c0,0,0,0,1.4-1.4C246.6-97.2,246.6-97.2,246.6-97.2z"/>
				<path class="st2" d="M290.5-91.9c-6.2-6.2-7.8-6.8-7.8-6.8c-7.3-2.7-14.8,0.8-16.7,7.8s-9,14.1-16,16
					c-6.9,1.9-10.4,9.4-7.8,16.7c0,0,0.6,1.6,6.8,7.8c3.6,3.6,3.6,3.6,3.6,3.6c4.5,2.7,12.6,0.3,18.2-5.2l18.1-18.1
					c5.5-5.5,7.8-13.7,5.2-18.2C294.1-88.3,294.1-88.3,290.5-91.9z"/>
			</g>
			<g id="PROP_TOP_4_">
				<path class="st2" d="M240.4-152.8c1.1-0.3,6.6,4,12.1,9.5l11.7,11.7c5.5,5.5,9.8,10.9,9.5,12.1c-0.3,1.1,5-0.4,11.7-3.5
					c0,0,0,0,5.2-5.2c3.6-3.6,3.6-3.6,3.6-3.6c2.7-4.5,0.3-12.6-5.2-18.2l-18.1-18.1c-5.5-5.5-13.7-7.8-18.2-5.2c0,0,0,0-3.6,3.6
					c-5.2,5.2-5.2,5.2-5.2,5.2C240.9-157.8,239.3-152.5,240.4-152.8z"/>
				<path class="st2" d="M243.7-125.7c-1.8-1.1-2.2-0.6-1,1.1c0,0,0,0,1.4,1.4c1.4,1.4,1.4,1.4,1.4,1.4c1.7,1.2,2.2,0.7,1.1-1
					c0,0,0,0-1.4-1.4C243.7-125.7,243.7-125.7,243.7-125.7z"/>
			</g>
		</g>
		<g class="st1">
			<g id="PROP_BOTTOM_5_">
				<path class="st2" d="M221.3-367.3c-1.1,0.3-6.6-4-12.1-9.5l-11.7-11.7c-5.5-5.5-9.8-10.9-9.5-12.1c0.3-1.1-5,0.4-11.7,3.5
					c0,0,0,0-5.2,5.2c-3.6,3.6-3.6,3.6-3.6,3.6c-2.7,4.5-0.3,12.6,5.2,18.2L191-352c5.5,5.5,13.7,7.8,18.2,5.2c0,0,0,0,3.6-3.6
					c5.2-5.2,5.2-5.2,5.2-5.2C220.9-362.3,222.5-367.6,221.3-367.3z"/>
			</g>
			<g id="PROP_RIGHT_5_">
				<path class="st2" d="M290.5-391.9c-6.2-6.2-7.8-6.8-7.8-6.8c-7.3-2.7-14.8,0.8-16.7,7.8c-1.9,6.9-9,14.1-16,16
					c-6.9,1.9-10.4,9.4-7.8,16.7c0,0,0.6,1.6,6.8,7.8c3.6,3.6,3.6,3.6,3.6,3.6c4.5,2.7,12.6,0.3,18.2-5.2l18.1-18.1
					c5.5-5.5,7.8-13.7,5.2-18.2C294.1-388.3,294.1-388.3,290.5-391.9z"/>
			</g>
		</g>
	</g>
</pattern>
<rect class="st3" width="300" height="300"/>
</svg>
